<svg width="20" height="21" viewBox="0 0 20 21" fill="none" xmlns="http://www.w3.org/2000/svg">
<g clip-path="url(#clip0)">
<path d="M18.9541 14.3987L17.7464 18.4822L15.3755 17.8338L18.9541 14.3987Z" fill="#E4761B" stroke="#E4761B" stroke-width="0.237586"/>
<path d="M15.3755 17.8338L17.6623 14.7006L18.9541 14.3987L15.3755 17.8338Z" fill="#E4761B" stroke="#E4761B" stroke-width="0.237586"/>
<path d="M17.177 11.32L18.954 14.3987L17.6621 14.7006L17.177 11.32ZM17.177 11.32L18.3204 10.528L18.954 14.3987L17.177 11.32Z" fill="#F6851B" stroke="#F6851B" stroke-width="0.237586"/>
<path d="M15.7219 8.9936L19.0085 7.64728L18.8452 8.38478L15.7219 8.9936ZM18.7412 9.27078L15.7219 8.9936L18.8452 8.38478L18.7412 9.27078Z" fill="#763D16" stroke="#763D16" stroke-width="0.237586"/>
<path d="M18.7412 9.27078L18.3205 10.528L15.7219 8.9936L18.7412 9.27078ZM19.3996 7.95911L18.8452 8.38478L19.0085 7.64728L19.3996 7.95911ZM18.7412 9.27078L18.8452 8.38478L19.2857 8.75106L18.7412 9.27078Z" fill="#763D16" stroke="#763D16" stroke-width="0.237586"/>
<path d="M12.8262 16.8389L13.6478 17.1013L15.3753 17.8338L12.8262 16.8389Z" fill="#E2761B" stroke="#E2761B" stroke-width="0.237586"/>
<path d="M18.3203 10.528L18.741 9.27077L19.1023 9.54796L18.3203 10.528ZM18.3203 10.528L14.9099 9.40442L15.7217 8.99359L18.3203 10.528Z" fill="#763D16" stroke="#763D16" stroke-width="0.237586"/>
<path d="M16.5334 5.13782L15.7217 8.99364L14.9099 9.40447L16.5334 5.13782Z" fill="#763D16" stroke="#763D16" stroke-width="0.237586"/>
<path d="M19.0085 7.64732L15.7219 8.99364L16.5337 5.13782L19.0085 7.64732Z" fill="#763D16" stroke="#763D16" stroke-width="0.237586"/>
<path d="M16.5337 5.1378L19.9638 4.74182L19.0085 7.6473L16.5337 5.1378Z" fill="#763D16" stroke="#763D16" stroke-width="0.237586"/>
<path d="M18.3203 10.528L17.1769 11.32L14.9099 9.40442L18.3203 10.528Z" fill="#F6851B" stroke="#F6851B" stroke-width="0.237586"/>
<path d="M19.8153 1.96503L19.9638 4.74181L16.5337 5.13779L19.8153 1.96503Z" fill="#763D16" stroke="#763D16" stroke-width="0.237586"/>
<path d="M19.8153 1.96503L12.9599 6.94938L12.8708 3.56873L19.8153 1.96503Z" fill="#E2761B" stroke="#E2761B" stroke-width="0.237586"/>
<path d="M7.77271 3.16284L12.8709 3.56872L12.96 6.94936L7.77271 3.16284Z" fill="#F6851B" stroke="#F6851B" stroke-width="0.237586"/>
<path d="M14.9101 9.40447L12.96 6.94941L16.5336 5.13782L14.9101 9.40447Z" fill="#763D16" stroke="#763D16" stroke-width="0.237586"/>
<path d="M14.9101 9.40442L17.177 11.32L13.9944 11.6714L14.9101 9.40442Z" fill="#E4761B" stroke="#E4761B" stroke-width="0.237586"/>
<path d="M13.9945 11.6714L12.96 6.9494L14.9102 9.40446L13.9945 11.6714Z" fill="#E4761B" stroke="#E4761B" stroke-width="0.237586"/>
<path d="M16.5337 5.13779L12.96 6.94938L19.8153 1.96503L16.5337 5.13779Z" fill="#763D16" stroke="#763D16" stroke-width="0.237586"/>
<path d="M7.81722 17.7546L9.43577 19.4424L7.23315 17.4378L7.81722 17.7546Z" fill="#C0AD9E" stroke="#C0AD9E" stroke-width="0.237586"/>
<path d="M15.3755 17.8338L16.1427 14.9184L17.6623 14.7006L15.3755 17.8338Z" fill="#CD6116" stroke="#CD6116" stroke-width="0.237586"/>
<path d="M1.25391 9.63208L4.05544 6.68701L1.61523 9.28066L1.25391 9.63208Z" fill="#E2761B" stroke="#E2761B" stroke-width="0.237586"/>
<path d="M17.6622 14.7006L16.1427 14.9184L17.1772 11.32L17.6622 14.7006ZM12.96 6.94937L10.2327 6.86027L7.77271 3.16284L12.96 6.94937Z" fill="#F6851B" stroke="#F6851B" stroke-width="0.237586"/>
<path d="M17.177 11.3199L16.1425 14.9184L16.0583 13.1612L17.177 11.3199Z" fill="#E4751F" stroke="#E4751F" stroke-width="0.237586"/>
<path d="M13.9944 11.6714L17.177 11.3199L16.0584 13.1612L13.9944 11.6714Z" fill="#CD6116" stroke="#CD6116" stroke-width="0.237586"/>
<path d="M10.2327 6.86029L12.96 6.94938L13.9944 11.6714L10.2327 6.86029Z" fill="#F6851B" stroke="#F6851B" stroke-width="0.237586"/>
<path d="M10.2327 6.8603L2.87249 0.0494995L7.7727 3.16287L10.2327 6.8603ZM7.76775 18.7891L1.37273 20.769L0.0957031 15.8935L7.76775 18.7891Z" fill="#E4761B" stroke="#E4761B" stroke-width="0.237586"/>
<path d="M2.2041 10.8498L4.61956 8.95404L6.64399 9.42426L2.2041 10.8498Z" fill="#763D16" stroke="#763D16" stroke-width="0.237586"/>
<path d="M6.6443 9.42425L4.61987 8.95402L5.70386 4.47949L6.6443 9.42425Z" fill="#763D16" stroke="#763D16" stroke-width="0.237586"/>
<path d="M1.61523 9.28072L4.61971 8.95404L2.20425 10.8498L1.61523 9.28072Z" fill="#763D16" stroke="#763D16" stroke-width="0.237586"/>
<path d="M16.0584 13.1613L14.8111 12.5326L13.9944 11.6714L16.0584 13.1613Z" fill="#CD6116" stroke="#CD6116" stroke-width="0.237586"/>
<path d="M1.61543 9.28069L1.40259 8.1571L4.6199 8.95401L1.61543 9.28069Z" fill="#763D16" stroke="#763D16" stroke-width="0.237586"/>
<path d="M14.5537 13.9483L14.8111 12.5327L16.0584 13.1613L14.5537 13.9483Z" fill="#233447" stroke="#233447" stroke-width="0.237586"/>
<path d="M16.1426 14.9184L14.5537 13.9483L16.0584 13.1613L16.1426 14.9184Z" fill="#F6851B" stroke="#F6851B" stroke-width="0.237586"/>
<path d="M4.61954 8.95402L1.40223 8.15712L1.13989 7.21173L4.61954 8.95402ZM5.70352 4.47949L4.61954 8.95402L1.13989 7.21173L5.70352 4.47949ZM5.70352 4.47949L10.2325 6.8603L6.64397 9.42425L5.70352 4.47949Z" fill="#763D16" stroke="#763D16" stroke-width="0.237586"/>
<path d="M6.64429 9.42424L10.2328 6.86029L11.8316 11.7457L6.64429 9.42424ZM11.8316 11.7457L6.87197 11.6417L6.64429 9.42424L11.8316 11.7457Z" fill="#E4761B" stroke="#E4761B" stroke-width="0.237586"/>
<path d="M2.2041 10.8498L6.64399 9.42424L6.87168 11.6417L2.2041 10.8498ZM13.9943 11.6714L11.8313 11.7457L10.2325 6.86029L13.9943 11.6714Z" fill="#F6851B" stroke="#F6851B" stroke-width="0.237586"/>
<path d="M14.8111 12.5326L14.5537 13.9483L13.9944 11.6714L14.8111 12.5326Z" fill="#CD6116" stroke="#CD6116" stroke-width="0.237586"/>
<path d="M2.87231 0.0494995L10.2325 6.8603L5.70355 4.47949L2.87231 0.0494995Z" fill="#763D16" stroke="#763D16" stroke-width="0.237586"/>
<path d="M0.0957031 15.8935L6.30264 15.6361L7.76775 18.7891L0.0957031 15.8935Z" fill="#E4761B" stroke="#E4761B" stroke-width="0.237586"/>
<path d="M7.7676 18.7891L6.30249 15.6361L9.35151 15.4876L7.7676 18.7891Z" fill="#CD6116" stroke="#CD6116" stroke-width="0.237586"/>
<path d="M14.5538 13.9482L16.1427 14.9184L17.0188 16.9824L14.5538 13.9482ZM6.87185 11.6417L0.0957031 15.8935L2.20428 10.8497L6.87185 11.6417ZM6.30264 15.6361L0.0957031 15.8935L6.87185 11.6417L6.30264 15.6361ZM13.9945 11.6714L14.4004 13.1464L12.4403 13.2602L13.9945 11.6714ZM12.4403 13.2602L11.8315 11.7456L13.9945 11.6714L12.4403 13.2602Z" fill="#F6851B" stroke="#F6851B" stroke-width="0.237586"/>
<path d="M9.43563 19.4424L7.76758 18.7891L13.5686 19.7641L9.43563 19.4424Z" fill="#C0AD9E" stroke="#C0AD9E" stroke-width="0.237586"/>
<path d="M2.20425 10.8498L1.25391 9.63213L1.61523 9.2807L2.20425 10.8498Z" fill="#763D16" stroke="#763D16" stroke-width="0.237586"/>
<path d="M14.2269 19.0415L13.5686 19.7641L7.76758 18.7891L14.2269 19.0415Z" fill="#D7C1B3" stroke="#D7C1B3" stroke-width="0.237586"/>
<path d="M14.5388 17.2695L7.76758 18.7891L9.35148 15.4876L14.5388 17.2695Z" fill="#E4761B" stroke="#E4761B" stroke-width="0.237586"/>
<path d="M7.76758 18.7891L14.5388 17.2695L14.2269 19.0415L7.76758 18.7891Z" fill="#D7C1B3" stroke="#D7C1B3" stroke-width="0.237586"/>
<path d="M1.13997 7.21172L0.917236 3.4054L5.7036 4.47948L1.13997 7.21172ZM1.61514 9.2807L0.956834 8.61249L1.40231 8.15711L1.61514 9.2807Z" fill="#763D16" stroke="#763D16" stroke-width="0.237586"/>
<path d="M10.7227 12.7257L11.8314 11.7457L11.673 14.1413L10.7227 12.7257Z" fill="#CD6116" stroke="#CD6116" stroke-width="0.237586"/>
<path d="M11.8315 11.7457L10.7227 12.7257L9.10913 13.5622L11.8315 11.7457Z" fill="#CD6116" stroke="#CD6116" stroke-width="0.237586"/>
<path d="M17.0187 16.9825L16.7167 16.7597L14.5537 13.9483L17.0187 16.9825Z" fill="#F6851B" stroke="#F6851B" stroke-width="0.237586"/>
<path d="M9.10909 13.5622L6.87183 11.6417L11.8314 11.7457L9.10909 13.5622Z" fill="#CD6116" stroke="#CD6116" stroke-width="0.237586"/>
<path d="M11.6729 14.1413L11.8312 11.7457L12.4401 13.2603L11.6729 14.1413Z" fill="#E4751F" stroke="#E4751F" stroke-width="0.237586"/>
<path d="M0.739258 7.58791L1.14018 7.21173L1.40252 8.15713L0.739258 7.58791Z" fill="#763D16" stroke="#763D16" stroke-width="0.237586"/>
<path d="M11.6731 14.1413L9.10913 13.5622L10.7227 12.7257L11.6731 14.1413Z" fill="#233447" stroke="#233447" stroke-width="0.237586"/>
<path d="M5.7036 4.47949L0.917236 3.4054L2.87237 0.0494995L5.7036 4.47949Z" fill="#763D16" stroke="#763D16" stroke-width="0.237586"/>
<path d="M13.5688 19.7642L13.841 20.5066L9.43579 19.4424L13.5688 19.7642Z" fill="#C0AD9E" stroke="#C0AD9E" stroke-width="0.237586"/>
<path d="M9.35167 15.4876L9.10913 13.5622L11.6731 14.1413L9.35167 15.4876Z" fill="#F6851B" stroke="#F6851B" stroke-width="0.237586"/>
<path d="M6.87183 11.6417L9.10909 13.5622L9.35163 15.4876L6.87183 11.6417Z" fill="#E4751F" stroke="#E4751F" stroke-width="0.237586"/>
<path d="M12.4401 13.2603L14.4002 13.1464L16.7167 16.7597L12.4401 13.2603ZM6.87171 11.6417L9.35151 15.4876L6.30249 15.6361L6.87171 11.6417Z" fill="#F6851B" stroke="#F6851B" stroke-width="0.237586"/>
<path d="M12.4401 13.2603L14.8753 16.9676L11.6729 14.1413L12.4401 13.2603Z" fill="#E4751F" stroke="#E4751F" stroke-width="0.237586"/>
<path d="M11.6729 14.1413L14.8753 16.9676L14.5387 17.2695L11.6729 14.1413Z" fill="#F6851B" stroke="#F6851B" stroke-width="0.237586"/>
<path d="M14.5389 17.2695L9.35156 15.4876L11.673 14.1413L14.5389 17.2695ZM16.7167 16.7597L14.8754 16.9676L12.4402 13.2603L16.7167 16.7597Z" fill="#F6851B" stroke="#F6851B" stroke-width="0.237586"/>
<path d="M17.2019 18.502L16.41 20.0909L13.8411 20.5066L17.2019 18.502ZM13.8411 20.5066L13.5688 19.7642L14.2272 19.0415L13.8411 20.5066Z" fill="#C0AD9E" stroke="#C0AD9E" stroke-width="0.237586"/>
<path d="M14.2269 19.0415L14.712 18.8485L13.8408 20.5066L14.2269 19.0415ZM13.8408 20.5066L14.712 18.8485L17.2017 18.502L13.8408 20.5066Z" fill="#C0AD9E" stroke="#C0AD9E" stroke-width="0.237586"/>
<path d="M16.7167 16.7597L17.3256 17.1309L15.4744 17.3537L16.7167 16.7597Z" fill="#161616" stroke="#161616" stroke-width="0.237586"/>
<path d="M15.4744 17.3537L14.8755 16.9676L16.7168 16.7597L15.4744 17.3537ZM15.2616 17.6457L17.5137 17.3735L17.2018 18.502L15.2616 17.6457Z" fill="#161616" stroke="#161616" stroke-width="0.237586"/>
<path d="M17.2018 18.502L14.7121 18.8485L15.2615 17.6457L17.2018 18.502ZM14.7121 18.8485L14.2271 19.0415L14.5389 17.2695L14.7121 18.8485ZM14.5389 17.2695L14.8755 16.9676L15.4744 17.3537L14.5389 17.2695ZM17.3256 17.1309L17.5137 17.3735L15.2615 17.6457L17.3256 17.1309Z" fill="#161616" stroke="#161616" stroke-width="0.237586"/>
<path d="M15.2615 17.6457L15.4743 17.3537L17.3255 17.1309L15.2615 17.6457ZM14.5388 17.2695L15.2615 17.6457L14.7121 18.8485L14.5388 17.2695Z" fill="#161616" stroke="#161616" stroke-width="0.237586"/>
<path d="M15.4743 17.3537L15.2615 17.6457L14.5388 17.2695L15.4743 17.3537Z" fill="#161616" stroke="#161616" stroke-width="0.237586"/>
</g>
<defs>
<clipPath id="clip0">
<rect width="20" height="20.7987" fill="white"/>
</clipPath>
</defs>
</svg>
