<?xml version="1.0" encoding="utf-8"?>
<!-- Generator: Adobe Illustrator 26.0.3, SVG Export Plug-In . SVG Version: 6.00 Build 0)  -->
<svg version="1.1" id="Layer_1" xmlns="http://www.w3.org/2000/svg" xmlns:xlink="http://www.w3.org/1999/xlink" x="0px" y="0px"
	 viewBox="0 0 595.28 841.89" style="enable-background:new 0 0 595.28 841.89;" xml:space="preserve">
<style type="text/css">
	.st0{fill:#353535;}
	.st1{fill:#FFFFFF;}
	.st2{fill:#365FAC;}
</style>
<path class="st0" d="M100.96,501.97V188.91c0-11.29,7.9-20.44,17.65-20.44H469.5c20.39,0,36.92,19.15,36.92,42.77v419.45
	L100.96,501.97z"/>
<g>
	<path class="st1" d="M164.98,293.59c-16.85,0-30.02-8.37-30.58-24.21h20.31c0.56,6.03,4.35,8.93,9.71,8.93
		c5.58,0,9.15-2.79,9.15-7.36c0-14.51-39.17-6.7-38.94-34.48c0-14.84,12.16-23.1,28.57-23.1c17.07,0,28.57,8.48,29.35,23.43H171.9
		c-0.34-5.02-3.91-8.03-9.04-8.15c-4.58-0.11-8.03,2.23-8.03,7.14c0,13.61,38.72,7.48,38.72,33.7
		C193.54,282.66,183.28,293.59,164.98,293.59z"/>
	<path class="st1" d="M204.92,214.48h19.08v46.87c0,9.26,4.58,14.62,13.61,14.62s13.84-5.36,13.84-14.62v-46.87h19.08v46.76
		c0,21.65-15.18,32.36-33.25,32.36c-18.19,0-32.36-10.71-32.36-32.36V214.48z"/>
	<path class="st1" d="M314.84,264.69h-11.83v28.12h-19.08v-78.33h30.91c19.19,0,28.79,10.82,28.79,25.22
		C343.63,252.64,334.81,264.69,314.84,264.69z M313.38,249.52c7.59,0,10.82-3.79,10.82-9.82c0-6.03-3.24-9.82-10.82-9.82h-10.38
		v19.64H313.38z"/>
	<path class="st1" d="M401.54,229.77h-28.9v15.85h25.55v14.73h-25.55v17.18h28.9v15.29h-47.98v-78.33h47.98V229.77z"/>
	<path class="st1" d="M445.95,214.48c19.19,0,28.79,11.05,28.79,24.66c0,9.82-5.36,19.08-17.41,22.65l18.08,31.02h-21.54
		l-16.29-29.57H433v29.57h-19.08v-78.33H445.95z M444.83,230.32H433v19.42h11.83c7.14,0,10.49-3.68,10.49-9.82
		C455.32,234.12,451.97,230.32,444.83,230.32z"/>
	<path class="st1" d="M136.63,305.26h51v15.29h-31.91v16.51h23.88v14.84h-23.88v31.69h-19.08V305.26z"/>
	<path class="st1" d="M246.44,369.75H217.2l-4.69,13.84h-19.97l28.34-78.33h22.09l28.34,78.33h-20.2L246.44,369.75z M231.82,326.35
		l-9.6,28.68h19.3L231.82,326.35z"/>
	<path class="st1" d="M349.99,305.26v78.33h-19.08l-31.91-48.32v48.32h-19.08v-78.33h19.08l31.91,48.54v-48.54H349.99z"/>
	<path class="st1" d="M392.17,384.37c-16.85,0-30.02-8.37-30.58-24.21h20.31c0.56,6.03,4.35,8.93,9.71,8.93
		c5.58,0,9.15-2.79,9.15-7.36c0-14.51-39.17-6.7-38.94-34.48c0-14.84,12.16-23.1,28.57-23.1c17.07,0,28.57,8.48,29.35,23.43h-20.64
		c-0.33-5.02-3.91-8.03-9.04-8.15c-4.57-0.11-8.03,2.23-8.03,7.14c0,13.61,38.72,7.48,38.72,33.7
		C420.73,373.44,410.47,384.37,392.17,384.37z"/>
	<path class="st2" d="M173.68,475.15c-22.21,0-40.28-16.63-40.28-40.17c0-23.55,18.08-40.06,40.28-40.06
		c22.32,0,40.06,16.51,40.06,40.06C213.74,458.53,195.89,475.15,173.68,475.15z M173.68,457.74c12.5,0,20.64-9.04,20.64-22.76
		c0-13.95-8.15-22.76-20.64-22.76c-12.72,0-20.76,8.82-20.76,22.76C152.93,448.71,160.96,457.74,173.68,457.74z"/>
	<path class="st2" d="M294.42,396.04v78.33h-19.08l-31.91-48.32v48.32h-19.08v-78.33h19.08l31.91,48.54v-48.54H294.42z"/>
	<path class="st2" d="M327.34,396.04v63.61h25v14.73h-44.08v-78.33H327.34z"/>
	<path class="st2" d="M355.34,396.04h21.65l15.18,32.81l15.06-32.81h21.42l-27.12,52.45v25.89h-19.08v-25.89L355.34,396.04z"/>
</g>
</svg>
